<svg xmlns="http://www.w3.org/2000/svg" xmlns:xlink="http://www.w3.org/1999/xlink" width="20" height="20" viewBox="0 0 20 20"><rect width="100%" height="100%" fill="#ff0000"/><path d="M3.03 11.23L3.96 11.23Q4.06 11.23 4.11 11.29Q4.17 11.35 4.17 11.44L4.17 11.44L4.17 11.81L1.69 11.81L1.69 11.60Q1.69 11.54 1.72 11.47Q1.75 11.40 1.80 11.35L1.80 11.35L2.90 10.25Q3.04 10.11 3.15 9.98Q3.26 9.85 3.33 9.73Q3.40 9.60 3.44 9.47Q3.48 9.35 3.48 9.20L3.48 9.20Q3.48 9.07 3.44 8.97Q3.40 8.88 3.33 8.81Q3.27 8.74 3.17 8.71Q3.07 8.67 2.95 8.67L2.95 8.67Q2.84 8.67 2.75 8.70Q2.66 8.74 2.58 8.79Q2.51 8.85 2.46 8.92Q2.41 9.00 2.39 9.09L2.39 9.09Q2.34 9.20 2.28 9.24Q2.21 9.28 2.08 9.26L2.08 9.26L1.76 9.20Q1.79 8.94 1.90 8.74Q2.01 8.55 2.17 8.42Q2.33 8.29 2.54 8.22Q2.75 8.15 2.99 8.15L2.99 8.15Q3.24 8.15 3.45 8.23Q3.65 8.30 3.80 8.44Q3.95 8.57 4.03 8.76Q4.11 8.95 4.11 9.18L4.11 9.18Q4.11 9.38 4.05 9.55Q4.00 9.72 3.90 9.88Q3.80 10.03 3.67 10.18Q3.53 10.32 3.39 10.47L3.39 10.47L2.57 11.31Q2.69 11.27 2.81 11.25Q2.92 11.23 3.03 11.23L3.03 11.23ZM7.18 10L7.18 10Q7.18 10.47 7.08 10.82Q6.98 11.17 6.80 11.40Q6.62 11.63 6.37 11.74Q6.13 11.85 5.85 11.85L5.85 11.85Q5.57 11.85 5.32 11.74Q5.08 11.63 4.91 11.40Q4.73 11.17 4.63 10.82Q4.53 10.47 4.53 10L4.53 10Q4.53 9.53 4.63 9.18Q4.73 8.83 4.91 8.60Q5.08 8.38 5.32 8.26Q5.57 8.15 5.85 8.15L5.85 8.15Q6.13 8.15 6.37 8.26Q6.62 8.38 6.80 8.60Q6.98 8.83 7.08 9.18Q7.18 9.53 7.18 10ZM6.54 10L6.54 10Q6.54 9.61 6.48 9.35Q6.43 9.09 6.33 8.94Q6.23 8.79 6.11 8.73Q5.98 8.67 5.85 8.67L5.85 8.67Q5.72 8.67 5.59 8.73Q5.47 8.79 5.37 8.94Q5.28 9.09 5.22 9.35Q5.17 9.61 5.17 10L5.17 10Q5.17 10.39 5.22 10.65Q5.28 10.91 5.37 11.06Q5.47 11.21 5.59 11.27Q5.72 11.34 5.85 11.34L5.85 11.34Q5.98 11.34 6.11 11.27Q6.23 11.21 6.33 11.06Q6.43 10.91 6.48 10.65Q6.54 10.39 6.54 10ZM11.15 10.98L10.82 11.30L9.97 10.46L9.12 11.31L8.79 10.99L9.64 10.13L8.83 9.31L9.15 8.99L9.97 9.80L10.78 8.99L11.11 9.32L10.30 10.13L11.15 10.98ZM14.16 11.23L15.09 11.23Q15.19 11.23 15.24 11.29Q15.30 11.35 15.30 11.44L15.30 11.44L15.30 11.81L12.82 11.81L12.82 11.60Q12.82 11.54 12.85 11.47Q12.88 11.40 12.93 11.35L12.93 11.35L14.03 10.25Q14.17 10.11 14.28 9.98Q14.38 9.85 14.46 9.73Q14.53 9.60 14.57 9.47Q14.61 9.35 14.61 9.20L14.61 9.20Q14.61 9.07 14.57 8.97Q14.53 8.88 14.46 8.81Q14.39 8.74 14.30 8.71Q14.20 8.67 14.08 8.67L14.08 8.67Q13.97 8.67 13.88 8.70Q13.79 8.74 13.71 8.79Q13.64 8.85 13.59 8.92Q13.54 9.00 13.52 9.09L13.52 9.09Q13.47 9.20 13.41 9.24Q13.34 9.28 13.21 9.26L13.21 9.26L12.88 9.20Q12.92 8.94 13.03 8.74Q13.14 8.55 13.30 8.42Q13.46 8.29 13.67 8.22Q13.88 8.15 14.12 8.15L14.12 8.15Q14.37 8.15 14.58 8.23Q14.78 8.30 14.93 8.44Q15.08 8.57 15.16 8.76Q15.24 8.95 15.24 9.18L15.24 9.18Q15.24 9.38 15.18 9.55Q15.13 9.72 15.03 9.88Q14.93 10.03 14.79 10.18Q14.66 10.32 14.52 10.47L14.52 10.47L13.70 11.31Q13.82 11.27 13.94 11.25Q14.05 11.23 14.16 11.23L14.16 11.23ZM18.31 10L18.31 10Q18.31 10.47 18.21 10.82Q18.11 11.17 17.93 11.40Q17.75 11.63 17.50 11.74Q17.26 11.85 16.98 11.85L16.98 11.85Q16.70 11.85 16.45 11.74Q16.21 11.63 16.04 11.40Q15.86 11.17 15.76 10.82Q15.66 10.47 15.66 10L15.66 10Q15.66 9.53 15.76 9.18Q15.86 8.83 16.04 8.60Q16.21 8.38 16.45 8.26Q16.70 8.15 16.98 8.15L16.98 8.15Q17.26 8.15 17.50 8.26Q17.75 8.38 17.93 8.60Q18.11 8.83 18.21 9.18Q18.31 9.53 18.31 10ZM17.67 10L17.67 10Q17.67 9.61 17.61 9.35Q17.55 9.09 17.46 8.94Q17.36 8.79 17.24 8.73Q17.11 8.67 16.98 8.67L16.98 8.67Q16.84 8.67 16.72 8.73Q16.60 8.79 16.50 8.94Q16.41 9.09 16.35 9.35Q16.30 9.61 16.30 10L16.30 10Q16.30 10.39 16.35 10.65Q16.41 10.91 16.50 11.06Q16.60 11.21 16.72 11.27Q16.84 11.34 16.98 11.34L16.98 11.34Q17.11 11.34 17.24 11.27Q17.36 11.21 17.46 11.06Q17.55 10.91 17.61 10.65Q17.67 10.39 17.67 10Z" fill="#ff0000"/></svg>